<svg xmlns:rdf="http://www.w3.org/1999/02/22-rdf-syntax-ns#" xmlns="http://www.w3.org/2000/svg" height="82" width="94" version="1.1" xmlns:cc="http://creativecommons.org/ns#" xmlns:dc="http://purl.org/dc/elements/1.1/">
 <path fill-rule="evenodd" d="m81.06 73.73h-68.12c-0.712 0-1.29-0.58-1.29-1.295s0.578-1.295 1.29-1.295h2.189v-40.22c0-0.715 0.578-1.295 1.29-1.295h15.36v-20.06c0-0.714 0.578-1.294 1.29-1.294h27.9c0.712 0 1.289 0.58 1.289 1.294v19.87h15.55c0.712 0 1.29 0.58 1.29 1.294v40.42h1.967c0.712 0 1.289 0.58 1.289 1.295s-0.577 1.295-1.289 1.295zm-49.28-41.52h-14.07v32.38h9.672c0.713 0 1.29 0.58 1.29 1.295 0 0.714-0.577 1.294-1.29 1.294h-9.672v3.762h14.07v-38.73zm16.84 38.73h5.666v-12.82h-5.666v12.82zm-8.861 0h6.282v-12.82h-6.282v12.82zm19.92-60.09h-25.32v60.09h2.814v-14.11c0-0.715 0.578-1.295 1.29-1.295h17.11c0.712 0 1.29 0.58 1.29 1.295v14.11h2.814v-60.09zm16.84 56.33h-9.673c-0.712 0-1.29-0.58-1.29-1.294 0-0.715 0.578-1.295 1.29-1.295h9.673v-32.57h-14.07v38.73h14.07v-3.57zm-9.673-33.17h5.602c0.712 0 1.29 0.58 1.29 1.294v5.623c0 0.714-0.578 1.294-1.29 1.294h-5.602c-0.712 0-1.29-0.58-1.29-1.294v-5.623c0-0.714 0.578-1.294 1.29-1.294zm1.29 5.622h3.022v-3.033h-3.022v3.033zm-1.29 4.577h5.602c0.712 0 1.29 0.58 1.29 1.295v5.622c0 0.715-0.578 1.294-1.29 1.294h-5.602c-0.712 0-1.29-0.579-1.29-1.294v-5.622c0-0.715 0.578-1.295 1.29-1.295zm1.29 5.622h3.022v-3.033h-3.022v3.033zm-1.29 4.581h5.602c0.712 0 1.29 0.58 1.29 1.295v5.622c0 0.714-0.578 1.294-1.29 1.294h-5.602c-0.712 0-1.29-0.58-1.29-1.294v-5.622c0-0.715 0.578-1.295 1.29-1.295zm1.29 5.622h3.022v-3.033h-3.022v3.033zm-13.12-7.614h-5.6c-0.712 0-1.29-0.579-1.29-1.294v-5.622c0-0.715 0.578-1.295 1.29-1.295h5.6c0.712 0 1.29 0.58 1.29 1.295v5.622c0 0.715-0.578 1.294-1.29 1.294zm-1.29-5.622h-3.021v3.033h3.021v-3.033zm1.29-4.577h-5.6c-0.712 0-1.29-0.58-1.29-1.294v-5.623c0-0.714 0.578-1.294 1.29-1.294h5.6c0.712 0 1.29 0.58 1.29 1.294v5.623c0 0.714-0.578 1.294-1.29 1.294zm-1.29-5.622h-3.021v3.033h3.021v-3.033zm1.29-4.578h-5.6c-0.712 0-1.29-0.58-1.29-1.295v-5.622c0-0.715 0.578-1.294 1.29-1.294h5.6c0.712 0 1.29 0.579 1.29 1.294v5.622c0 0.715-0.578 1.295-1.29 1.295zm-1.29-5.622h-3.021v3.033h3.021v-3.033zm1.29-4.581h-5.6c-0.712 0-1.29-0.58-1.29-1.295v-5.622c0-0.714 0.578-1.294 1.29-1.294h5.6c0.712 0 1.29 0.58 1.29 1.294v5.622c0 0.715-0.578 1.295-1.29 1.295zm-1.29-5.622h-3.021v3.033h3.021v-3.033zm-9.103 36.22h-5.602c-0.712 0-1.29-0.579-1.29-1.294v-5.622c0-0.715 0.578-1.295 1.29-1.295h5.602c0.712 0 1.29 0.58 1.29 1.295v5.622c0 0.715-0.578 1.294-1.29 1.294zm-1.29-5.622h-3.023v3.033h3.023v-3.033zm1.29-4.577h-5.602c-0.712 0-1.29-0.58-1.29-1.294v-5.623c0-0.714 0.578-1.294 1.29-1.294h5.602c0.712 0 1.29 0.58 1.29 1.294v5.623c0 0.714-0.578 1.294-1.29 1.294zm-1.29-5.622h-3.023v3.033h3.023v-3.033zm1.29-4.578h-5.602c-0.712 0-1.29-0.58-1.29-1.295v-5.622c0-0.715 0.578-1.294 1.29-1.294h5.602c0.712 0 1.29 0.579 1.29 1.294v5.622c0 0.715-0.578 1.295-1.29 1.295zm-1.29-5.622h-3.023v3.033h3.023v-3.033zm1.29-4.581h-5.602c-0.712 0-1.29-0.58-1.29-1.295v-5.622c0-0.714 0.578-1.294 1.29-1.294h5.602c0.712 0 1.29 0.58 1.29 1.294v5.622c0 0.715-0.578 1.295-1.29 1.295zm-1.29-5.622h-3.023v3.033h3.023v-3.033zm0.662 50.78c-0.712 0-1.29-0.58-1.29-1.294v-2.211c0-0.715 0.578-1.294 1.29-1.294s1.29 0.579 1.29 1.294v2.211c0 0.714-0.578 1.294-1.29 1.294zm6.21 0c-0.712 0-1.29-0.58-1.29-1.294v-2.211c0-0.715 0.578-1.294 1.29-1.294s1.29 0.579 1.29 1.294v2.211c0 0.714-0.578 1.294-1.29 1.294zm-22.82-4.162h-5.602c-0.712 0-1.289-0.58-1.289-1.295v-5.622c0-0.715 0.577-1.295 1.289-1.295h5.602c0.713 0 1.29 0.58 1.29 1.295v5.622c0 0.715-0.577 1.295-1.29 1.295zm-1.289-5.623h-3.023v3.034h3.023v-3.034zm1.289-4.58h-5.602c-0.712 0-1.289-0.58-1.289-1.295v-5.622c0-0.715 0.577-1.294 1.289-1.294h5.602c0.713 0 1.29 0.579 1.29 1.294v5.622c0 0.715-0.577 1.295-1.29 1.295zm-1.289-5.622h-3.023v3.033h3.023v-3.033zm1.289-4.579h-5.602c-0.712 0-1.289-0.579-1.289-1.294v-5.622c0-0.715 0.577-1.295 1.289-1.295h5.602c0.713 0 1.29 0.58 1.29 1.295v5.622c0 0.715-0.577 1.294-1.29 1.294zm-1.289-5.622h-3.023v3.033h3.023v-3.033z"/>
</svg>
