<svg xmlns:rdf="http://www.w3.org/1999/02/22-rdf-syntax-ns#" xmlns="http://www.w3.org/2000/svg" height="82" width="94" version="1.1" xmlns:cc="http://creativecommons.org/ns#" xmlns:dc="http://purl.org/dc/elements/1.1/">
 <path fill-rule="evenodd" d="m72.36 70.72c-0.704 0-1.276-0.576-1.276-1.286v-5.594c-2.774-1.694-5.698-3.075-8.715-4.115-1.017 1.073-2.287 1.899-3.731 2.341l5.922 8.814c0.395 0.588 0.243 1.388-0.343 1.786-0.217 0.149-0.467 0.221-0.713 0.221-0.41 0-0.812-0.198-1.058-0.566l-1.548-2.303h-27.8l-1.556 2.305c-0.247 0.366-0.649 0.563-1.057 0.563-0.247 0-0.497-0.072-0.717-0.223-0.583-0.399-0.734-1.2-0.337-1.786l1.682-2.492c0.077-0.268 0.229-0.49 0.443-0.656l3.969-5.877c-1.278-0.498-2.403-1.3-3.306-2.307-4.667 1.362-8.026 2.968-9.316 3.63v6.259c0 0.71-0.572 1.286-1.276 1.286-0.705 0-1.277-0.576-1.277-1.286v-34.47c0-14.49 11.7-25.84 26.64-25.84s26.64 11.35 26.64 25.84v34.47c0 0.71-0.572 1.286-1.277 1.286zm-36.85-4.273-0.675 1h24.33l-0.698-1.04c-0.067 0.011-0.127 0.04-0.197 0.04h-22.76zm21.26-2.571-0.963-1.433h-17.17c-0.137 0-0.27-0.014-0.405-0.02l-0.981 1.453h19.52zm-18.13-4.004h17.49c3.364 0 6.1-2.757 6.1-6.146v-16.26c0-4.796-3.873-8.697-8.633-8.697h-12.42c-4.761 0-8.634 3.901-8.634 8.697v16.26c0 3.389 2.737 6.146 6.101 6.146zm32.45-24.91c0-13.05-10.58-23.27-24.09-23.27s-24.09 10.22-24.09 23.27v25.35c1.657-0.787 4.365-1.945 7.858-3.012-0.492-1.092-0.782-2.296-0.782-3.572v-16.26c0-6.213 5.019-11.27 11.19-11.27h12.42c6.168 0 11.19 5.055 11.19 11.27v16.26c0 1.372-0.332 2.662-0.895 3.817 2.472 0.897 4.882 2.004 7.2 3.32v-25.9zm-32.91-1.051h18.42c2.343 0 4.25 1.92 4.25 4.281v7.244c0 2.36-1.907 4.281-4.25 4.281h-18.42c-2.343 0-4.25-1.921-4.25-4.281v-7.244c0-2.361 1.907-4.281 4.25-4.281zm-1.697 11.52c0 0.942 0.762 1.709 1.697 1.709h18.42c0.936 0 1.697-0.767 1.697-1.709v-7.244c0-0.943-0.761-1.71-1.697-1.71h-18.42c-0.935 0-1.697 0.767-1.697 1.71v7.244zm1.649 4.988c1.966 0 3.565 1.611 3.565 3.591s-1.599 3.591-3.565 3.591c-1.965 0-3.564-1.611-3.564-3.591s1.599-3.591 3.564-3.591zm0 4.61c0.558 0 1.012-0.457 1.012-1.019s-0.454-1.019-1.012-1.019c-0.557 0-1.011 0.457-1.011 1.019s0.454 1.019 1.011 1.019zm18.51-4.61c1.967 0 3.566 1.611 3.566 3.591s-1.599 3.591-3.566 3.591c-1.964 0-3.563-1.611-3.563-3.591s1.599-3.591 3.563-3.591zm0 4.61c0.559 0 1.012-0.457 1.012-1.019s-0.453-1.019-1.012-1.019c-0.557 0-1.01 0.457-1.01 1.019s0.453 1.019 1.01 1.019zm-4.956-23.1h-9.367c-0.705 0-1.276-0.576-1.276-1.286s0.571-1.286 1.276-1.286h9.367c0.704 0 1.276 0.576 1.276 1.286s-0.572 1.286-1.276 1.286z"/>
</svg>
