<svg xmlns:rdf="http://www.w3.org/1999/02/22-rdf-syntax-ns#" xmlns="http://www.w3.org/2000/svg" height="82" width="94" version="1.1" xmlns:cc="http://creativecommons.org/ns#" xmlns:dc="http://purl.org/dc/elements/1.1/">
 <path fill-rule="evenodd" d="m86.66 60.06c0 3.848-3.172 6.98-7.071 6.98l-26.63-0.163c-1.65 0-3.181-0.515-4.442-1.385-0.552 2.058-1.919 3.708-3.792 4.451l-2.256 0.896c-0.153 0.061-0.314 0.091-0.474 0.091-0.242 0-0.483-0.068-0.692-0.203-0.348-0.223-0.566-0.599-0.587-1.011l-0.688-13.77c-1.406-0.334-2.354-1.011-2.779-2.047l-0.19-0.464c-0.944-2.306 1.245-4.368 1.964-5.046 0.158-0.136 0.231-0.194 0.282-0.248 0.094-0.097 0.208-0.161 0.322-0.223l-0.179-3.587-3.291 1.306c-0.695 0.276-1.397 0.476-2.001 0.643l-13.92 3.275-1.692 6.397c-0.104 0.391-0.387 0.711-0.765 0.86l-2.508 0.996c-0.652 0.26-1.394-0.055-1.66-0.704l-6.168-15.06c-0.129-0.316-0.127-0.669 0.008-0.983 0.133-0.313 0.387-0.561 0.704-0.686l2.571-1.021c0.374-0.147 0.796-0.112 1.137 0.094l5.737 3.459 12.24-7.108c0.018-0.011 0.163-0.086 0.183-0.096 0.589-0.305 1.132-0.584 1.755-0.832l3.262-1.294-2.731-3.082-0.362 0.002h-0.041c-3.534 0-4.794-1.267-5.23-2.332l-0.19-0.459c-0.406-0.992-0.213-2.126 0.497-3.223l-8.897-10.04c-0.276-0.312-0.383-0.737-0.286-1.142 0.097-0.404 0.384-0.736 0.772-0.89l2.257-0.896c2.317-0.922 4.942-0.363 7.019 1.493l7.869 5.858 3.612-1.46c0.899-0.357 1.884-0.312 2.776 0.126 0.75 0.246 1.454 0.925 1.832 1.851l1.278 3.267c0.369 1.092 0.235 2.188-0.298 3.064l3.453 2.571 10.06-3.993c2.847-1.131 11.95-2.292 13.28 0.969 0.262 0.641 0.218 1.378-0.13 2.192-1.141 2.676-5.776 6.421-8.769 7.609l-10.04 3.989-0.646 4.057c1.064 0.296 1.925 1.008 2.344 2.034l0.902 2.387c0.616-0.196 1.27-0.306 1.948-0.306 1.041 0 2.052 0.249 2.961 0.726 1.382-3.642 5.017-6.191 9.271-6.427 3.385-0.178 6.255 0.742 8.314 2.686 1.942 1.831 3.012 4.427 3.012 7.306 0 0.554-0.052 1.12-0.157 1.691 3.382 0.537 5.947 3.437 5.947 6.859zm-47.22-7.587 0.189 0.463c0.044 0.107 0.148 0.192 0.27 0.269l-0.092-1.843c-0.324 0.465-0.472 0.856-0.367 1.111zm-10.58-25.74 0.189 0.458c0.071 0.172 0.337 0.347 0.771 0.486l-0.981-1.108c-0.003 0.067 0.004 0.122 0.021 0.164zm13.95-3.218-1.249-3.193c-0.091-0.221-0.239-0.377-0.434-0.443-0.393-0.181-0.617-0.197-0.839-0.11l-2.168 0.876 4.708 3.505c0.051-0.197 0.058-0.412-0.018-0.635zm19.06 9.167c3.134-1.244 7.241-5.209 7.444-6.453-1.015-0.765-6.779-0.825-9.936 0.429l-10.72 4.257c-0.411 0.163-0.884 0.103-1.24-0.163l-21.18-15.78c-1.425-1.268-3.056-1.65-4.45-1.095l-0.566 0.224 16.95 19.14c0.276 0.312 0.383 0.737 0.286 1.141-0.096 0.405-0.384 0.737-0.772 0.891l-4.952 1.966c-0.542 0.216-1.012 0.461-1.525 0.726l-12.97 7.525c-0.404 0.235-0.907 0.232-1.307-0.01l-5.843-3.523-0.779 0.309 5.2 12.7 0.728-0.29 1.724-6.515c0.121-0.455 0.483-0.809 0.944-0.917l14.63-3.44c0.502-0.139 1.107-0.31 1.689-0.542l4.953-1.966c0.385-0.153 0.819-0.113 1.167 0.112 0.347 0.222 0.566 0.599 0.587 1.011l1.268 25.38 0.593-0.235c1.382-0.549 2.293-1.912 2.435-3.649 0.018-0.214 0.102-0.4 0.211-0.569-0.788-1.202-1.252-2.631-1.252-4.166 0-2.356 1.093-4.48 2.829-5.898-0.038-0.158-0.048-0.325-0.021-0.496l2.365-14.86c0.071-0.445 0.371-0.82 0.792-0.986l10.72-4.258zm-9.784 13.38c-0.082-0.2-0.221-0.323-0.365-0.408l-0.987 6.201c0.173-0.051 0.336-0.121 0.515-0.161 0.344-1.151 1.011-2.131 1.872-2.889l-1.035-2.743zm27.82 9.607-0.854-0.059c-0.377-0.026-0.723-0.216-0.946-0.52-0.224-0.305-0.3-0.691-0.21-1.057l0.201-0.819c0.144-0.585 0.217-1.16 0.217-1.711 0-2.17-0.784-4.107-2.21-5.451-1.535-1.449-3.758-2.135-6.413-1.99-3.429 0.189-6.315 2.306-7.18 5.266l-0.277 0.949c-0.114 0.393-0.409 0.707-0.794 0.846-0.386 0.139-0.813 0.087-1.153-0.144l-0.829-0.559c-0.633-0.428-1.372-0.654-2.14-0.654-1.762 0-3.273 1.18-3.674 2.869l-0.109 0.457c-0.117 0.496-0.519 0.874-1.022 0.963l-0.469 0.083c-2.493 0.44-4.301 2.56-4.301 5.041 0 2.833 2.347 5.136 5.233 5.136l26.63 0.163c2.479 0 4.502-1.984 4.502-4.425 0-2.297-1.845-4.222-4.199-4.384z"/>
</svg>
