<svg xmlns:rdf="http://www.w3.org/1999/02/22-rdf-syntax-ns#" xmlns="http://www.w3.org/2000/svg" height="82" width="94" version="1.1" xmlns:cc="http://creativecommons.org/ns#" xmlns:dc="http://purl.org/dc/elements/1.1/">
 <path fill-rule="evenodd" d="m74.82 70.65c-4.407 0-8.456-1.563-11.65-4.16l-36.53 9.744c-0.574 0.154-1.157 0.231-1.737 0.231-1.177 0-2.339-0.315-3.384-0.928-1.569-0.922-2.688-2.406-3.15-4.183l-5.052-19.43v-0.002c-0.001 0 0-0.001-0.001-0.001l-2.252-8.663c0-0.002-0.001-0.002-0.001-0.003v-0.003l-0.369-1.42c-0.054-0.208-0.063-0.415-0.097-0.623-6.158-3.228-10.1-9.726-10.1-16.78 0-10.42 8.372-18.89 18.66-18.89s18.66 8.475 18.66 18.89c0 1.069-0.115 2.127-0.289 3.169l33.08-8.823c1.746-0.464 3.566-0.216 5.124 0.701 1.569 0.92 2.686 2.405 3.148 4.179l2.735 10.52c6.94 2.755 11.88 9.588 11.88 17.58 0 10.42-8.371 18.89-18.66 18.89zm-53.82 0.011c0.277 1.063 0.946 1.955 1.885 2.505 0.927 0.543 2.009 0.692 3.051 0.416l34.93-9.317c-2.921-3.336-4.712-7.708-4.712-12.51 0-3.987 1.233-7.683 3.324-10.74l-43.19 11.52 4.71 18.12zm-1.85-62.38c-8.786 0-15.93 7.244-15.93 16.15 0 5.608 2.916 10.8 7.554 13.72 0.653-2.215 2.375-4.054 4.741-4.685l3.356-0.895c-2.463-0.883-4.118-2.711-4.743-5.4h-2.477v-1.763h2.219c-0.024-0.284-0.035-0.592-0.035-0.981 0-0.411 0.011-0.745 0.036-1.037h-2.22v-1.767h2.489c0.915-3.843 3.917-5.957 8.459-5.957 0.693 0 1.453 0.061 1.818 0.116l0.076 0.013v2.094l-0.105-0.018c-0.382-0.063-0.916-0.091-1.789-0.091-3.108 0-5.195 1.327-6.044 3.843h6.146v1.767h-6.511c-0.032 0.363-0.048 0.703-0.048 1.037 0 0.318 0.016 0.639 0.048 0.981h6.511v1.763h-6.172c0.836 2.554 2.933 3.903 6.07 3.903 0.754 0 1.34-0.031 1.791-0.092l0.103-0.012v0.101l10.13-2.702c0.005-0.026-0.003-0.051 0.003-0.077l0.088-0.383c0.247-1.136 0.371-2.305 0.371-3.482 0-8.904-7.147-16.15-15.93-16.15zm57.08 16.07c-0.28-1.06-0.94-1.95-1.88-2.5-0.93-0.55-2.01-0.7-3.06-0.42l-55.09 14.69c-2.157 0.575-3.449 2.827-2.88 5.017l0.022 0.085 62.91-16.78-0.025-0.097zm0.715 2.751-62.91 16.78 1.563 6.014 47.24-12.6c3.244-2.756 7.419-4.422 11.98-4.422 1.275 0 2.52 0.131 3.724 0.379l-1.598-6.148zm-2.126 8.513c-8.785 0-15.93 7.244-15.93 16.15 0 8.903 7.148 16.15 15.93 16.15 8.785 0 15.93-7.244 15.93-16.15 0-8.904-7.148-16.15-15.93-16.15zm1.819 15.6c2.916 0.788 4.273 2.274 4.273 4.676 0 2.837-1.896 4.631-5.207 4.933v1.603h-1.746v-1.592c-3.171-0.268-5.219-2.141-5.23-4.791v-0.091h2.169l0.008 0.084c0.124 1.514 1.233 2.521 3.053 2.777v-5.975l-0.868-0.241c-2.549-0.686-3.953-2.284-3.953-4.5 0-2.597 1.844-4.404 4.821-4.729v-1.664h1.746v1.651c2.899 0.281 4.821 2.125 4.903 4.714l0.004 0.095h-2.168l-0.001-0.088c-0.047-1.411-1.117-2.462-2.738-2.7v5.607l0.934 0.231zm2.072 4.842c0-1.501-0.929-2.385-3.006-2.854v5.654c1.912-0.132 3.006-1.149 3.006-2.8zm-7.385-8.076c0 1.32 0.909 2.224 2.633 2.617v-5.228c-1.532 0.131-2.633 1.215-2.633 2.611zm-32.91 17.45c-0.573 0.154-1.157 0.23-1.739 0.23-0.531 0-1.057-0.086-1.576-0.213-0.794 0.747-1.753 1.334-2.873 1.632-0.578 0.156-1.166 0.232-1.749 0.232-1.185 0-2.355-0.316-3.407-0.934-1.58-0.926-2.705-2.421-3.171-4.21-0.954-3.673 1.224-7.449 4.855-8.416 1.093-0.293 2.209-0.274 3.279-0.02 0.818-0.773 1.817-1.34 2.906-1.631 1.757-0.473 3.589-0.218 5.159 0.705 1.579 0.927 2.705 2.421 3.169 4.209 0.955 3.672-1.223 7.447-4.853 8.416zm-3.972-6.072c-0.28-1.077-0.958-1.978-1.908-2.535-0.629-0.368-1.328-0.557-2.037-0.557-0.348 0-0.7 0.046-1.045 0.137-2.182 0.583-3.49 2.857-2.915 5.071 0.28 1.076 0.957 1.976 1.907 2.534 0.94 0.55 2.036 0.695 3.084 0.42 2.182-0.583 3.49-2.858 2.914-5.07zm6.188-1.651c-0.28-1.075-0.957-1.976-1.906-2.533-0.94-0.551-2.037-0.699-3.086-0.422-0.295 0.079-0.572 0.205-0.841 0.347 1.107 0.914 1.912 2.138 2.282 3.563 0.38 1.46 0.249 2.929-0.256 4.238 0.299-0.011 0.598-0.044 0.892-0.122 2.182-0.582 3.49-2.857 2.915-5.071z"/>
</svg>
