<svg xmlns:rdf="http://www.w3.org/1999/02/22-rdf-syntax-ns#" xmlns="http://www.w3.org/2000/svg" height="82" width="94" version="1.1" xmlns:cc="http://creativecommons.org/ns#" xmlns:dc="http://purl.org/dc/elements/1.1/">
 <path fill-rule="evenodd" d="m82.46 58.89-0.957 1.243c-0.001 0.001-0.001 0.003-0.002 0.004s-0.002 0.001-0.003 0.003l-11.14 14.46c-0.906 1.177-2.274 1.795-3.658 1.795-0.981 0-1.972-0.312-2.808-0.955h-0.002l-13.04-10.04v11.08c0 2.985-2.429 5.413-5.414 5.413h-29.44c-2.985 0-5.412-2.428-5.412-5.413v-56.24c0-2.984 2.427-5.412 5.412-5.412h1.654v-10.28c0-0.423 0.197-0.822 0.534-1.079 0.338-0.255 0.776-0.338 1.182-0.229l7.731 2.126 7.172-5.039c0.379-0.265 0.866-0.322 1.294-0.145l7.587 3.111c0.508 0.209 0.84 0.705 0.84 1.255v10.28h1.445c2.985 0 5.414 2.428 5.414 5.412v8.477l30.77 23.69c0.975 0.752 1.6 1.839 1.759 3.06 0.159 1.222-0.17 2.433-0.922 3.408zm-3.936 0.666-34.01-26.18-1.561 2.026 34 26.18 1.562-2.027zm-44.26-17.32 5.719-7.423l3.216-4.175 0.001-0.001c0-0.001 0.001-0.001 0.001-0.001l0.174-0.226v-3.437h-25.3v15.26h16.19zm-1.992 9.938h-3.099v1.412h3.099v-1.412zm17.69 9.116c0.246 0.091 0.444 0.255 0.599 0.461l14.98 11.54h-0.002c0.832 0.636 2.023 0.484 2.666-0.346l7.099-9.215-34.01-26.19-7.1 9.216c-0.309 0.402-0.443 0.9-0.378 1.403 0.066 0.503 0.323 0.95 0.724 1.259l15.42 11.87zm-7.585-1.811h-3.099v1.411h3.099v-1.411zm-1.097-54.02-6.056-2.484-7.088 4.98c-0.33 0.232-0.748 0.307-1.139 0.198l-6.631-1.823v12.1h20.91v-12.97zm6.859 14.78c0-1.488-1.212-2.7-2.701-2.7h-1.445v2.239c0 0.749-0.607 1.356-1.356 1.356h-23.63c-0.749 0-1.356-0.607-1.356-1.356v-2.239h-1.654c-1.489 0-2.699 1.212-2.699 2.7v56.24c0 1.489 1.21 2.701 2.699 2.701h29.44c1.489 0 2.701-1.212 2.701-2.701v-13.17l-3.229-2.486v1.332c0 0.699-0.567 1.266-1.266 1.266h-5.633c-0.699 0-1.266-0.567-1.266-1.266v-3.943c0-0.7 0.567-1.267 1.266-1.267h1.864l-1.074-0.827h-0.79c-0.699 0-1.266-0.567-1.266-1.266v-0.317l-1.943-1.496v1.812c0 0.699-0.567 1.266-1.267 1.266h-5.632c-0.699 0-1.266-0.567-1.266-1.266v-3.944c0-0.699 0.567-1.266 1.266-1.266h3.544c-0.146-0.361-0.263-0.735-0.315-1.131-0.159-1.221 0.168-2.432 0.92-3.407l0.119-0.156h-15.46c-0.749 0-1.356-0.607-1.356-1.356v-17.98c0-0.748 0.607-1.356 1.356-1.356h28.02c0.749 0 1.357 0.608 1.357 1.356v2.329c0.652-0.262 1.354-0.386 2.054-0.337v-7.362zm32.55 35.58c-0.065-0.502-0.323-0.95-0.726-1.26l-31-23.87c-0.83-0.64-2.028-0.483-2.664 0.346l-0.133 0.172 34.01 26.18 0.132-0.172c0.309-0.403 0.445-0.901 0.38-1.404zm-62.9-6.184h5.632c0.699 0 1.266 0.567 1.266 1.266v3.944c0 0.699-0.567 1.266-1.266 1.266h-5.632c-0.7 0-1.267-0.567-1.267-1.266v-3.944c0-0.699 0.567-1.266 1.267-1.266zm1.266 3.944h3.099v-1.412h-3.099v1.412zm-1.266 3.36h5.632c0.699 0 1.266 0.567 1.266 1.267v3.943c0 0.699-0.567 1.266-1.266 1.266h-5.632c-0.7 0-1.267-0.567-1.267-1.266v-3.943c0-0.7 0.567-1.267 1.267-1.267zm1.266 3.944h3.099v-1.411h-3.099v1.411zm-1.266 3.36h5.632c0.699 0 1.266 0.567 1.266 1.266v3.944c0 0.699-0.567 1.266-1.266 1.266h-5.632c-0.7 0-1.267-0.567-1.267-1.266v-3.944c0-0.699 0.567-1.266 1.267-1.266zm1.266 3.944h3.099v-1.412h-3.099v1.412zm8.841-11.25h5.632c0.7 0 1.267 0.567 1.267 1.267v3.943c0 0.699-0.567 1.266-1.267 1.266h-5.632c-0.699 0-1.266-0.567-1.266-1.266v-3.943c0-0.7 0.567-1.267 1.266-1.267zm1.267 3.944h3.099v-1.411h-3.099v1.411zm-1.267 3.36h5.632c0.7 0 1.267 0.567 1.267 1.266v3.944c0 0.699-0.567 1.266-1.267 1.266h-5.632c-0.699 0-1.266-0.567-1.266-1.266v-3.944c0-0.699 0.567-1.266 1.266-1.266zm1.267 3.944h3.099v-1.412h-3.099v1.412zm8.841-3.944h5.633c0.699 0 1.266 0.567 1.266 1.266v3.944c0 0.699-0.567 1.266-1.266 1.266h-5.633c-0.699 0-1.266-0.567-1.266-1.266v-3.944c0-0.699 0.567-1.266 1.266-1.266zm1.267 3.944h3.099v-1.412h-3.099v1.412zm3.188-25.7c1.293-0.141 2.598 0.232 3.654 1.043 0.607 0.468 1.076 1.059 1.416 1.717 0.717 0.166 1.406 0.458 1.997 0.912 2.195 1.692 2.649 4.795 1.015 6.919-0.8 1.038-1.971 1.687-3.296 1.829-0.18 0.019-0.358 0.028-0.538 0.028-1.117 0-2.207-0.371-3.116-1.071-0.603-0.464-1.087-1.047-1.43-1.706-0.697-0.161-1.377-0.455-1.983-0.922-1.056-0.813-1.746-1.973-1.944-3.267-0.201-1.317 0.129-2.614 0.929-3.652 0.799-1.038 1.97-1.688 3.296-1.83zm4.498 9.723c0.582-0.062 1.09-0.342 1.435-0.787 0.685-0.891 0.5-2.188-0.383-2.984-0.137 0.724-0.421 1.412-0.882 2.01-0.467 0.605-1.054 1.065-1.706 1.376 0.464 0.3 0.999 0.44 1.536 0.385zm-6.04-4.651c0.091 0.601 0.417 1.144 0.916 1.528 1.007 0.777 2.422 0.646 3.143-0.293 0.001 0 0.001-0.001 0.001-0.001 0.343-0.445 0.484-1.009 0.396-1.586-0.092-0.6-0.417-1.143-0.917-1.527-0.431-0.333-0.943-0.509-1.464-0.509-0.081 0-0.164 0.004-0.245 0.013-0.581 0.062-1.092 0.342-1.435 0.788s-0.484 1.01-0.395 1.587z"/>
</svg>
