<svg xmlns:rdf="http://www.w3.org/1999/02/22-rdf-syntax-ns#" xmlns="http://www.w3.org/2000/svg" height="82" width="94" version="1.1" xmlns:cc="http://creativecommons.org/ns#" xmlns:dc="http://purl.org/dc/elements/1.1/">
 <path fill-rule="evenodd" d="m74.83 11.16h-4.252v65.16h3.726c0.749 0 1.356 0.616 1.356 1.375 0 0.76-0.607 1.376-1.356 1.376h-4.547c-0.164 0.072-0.345 0.113-0.535 0.113h-44.44c-0.19 0-0.371-0.041-0.535-0.113h-4.547c-0.749 0-1.356-0.616-1.356-1.376 0-0.759 0.607-1.375 1.356-1.375h3.726v-65.16h-4.252c-0.748 0-1.356-0.616-1.356-1.375v-5.599c0-0.76 0.608-1.376 1.356-1.376h55.66c0.749 0 1.357 0.616 1.357 1.376v5.599c0 0.759-0.608 1.375-1.357 1.375zm-48.69 65.16h41.73v-65.16h-41.73v65.16zm47.34-70.76h-52.95v2.849h4.252 44.44 4.252v-2.849zm-9.957 43.78h-13.33c-0.749 0-1.357-0.616-1.357-1.375v-4.24c0-0.759 0.608-1.375 1.357-1.375h13.33c0.749 0 1.356 0.616 1.356 1.375v4.24c0 0.759-0.607 1.375-1.356 1.375zm-1.356-4.24h-10.62v1.49h10.62v-1.49zm1.333-5.684h-32.84c-0.748 0-1.356-0.615-1.356-1.375v-20.75c0-0.759 0.608-1.375 1.356-1.375h32.84c0.749 0 1.356 0.616 1.356 1.375v20.75c0 0.76-0.607 1.375-1.356 1.375zm-1.356-20.75h-30.13v18h30.13v-18zm-31.38 22.65h2.45c0.749 0 1.357 0.616 1.357 1.375 0 0.76-0.608 1.376-1.357 1.376h-2.45c-0.748 0-1.356-0.616-1.356-1.376 0-0.759 0.608-1.375 1.356-1.375zm0 4.667h2.45c0.749 0 1.357 0.616 1.357 1.375s-0.608 1.375-1.357 1.375h-2.45c-0.748 0-1.356-0.616-1.356-1.375s0.608-1.375 1.356-1.375zm0 4.668h2.45c0.749 0 1.357 0.616 1.357 1.375s-0.608 1.375-1.357 1.375h-2.45c-0.748 0-1.356-0.616-1.356-1.375s0.608-1.375 1.356-1.375zm5.867-9.335h2.45c0.749 0 1.356 0.616 1.356 1.375 0 0.76-0.607 1.376-1.356 1.376h-2.45c-0.748 0-1.356-0.616-1.356-1.376 0-0.759 0.608-1.375 1.356-1.375zm0 4.667h2.45c0.749 0 1.356 0.616 1.356 1.375s-0.607 1.375-1.356 1.375h-2.45c-0.748 0-1.356-0.616-1.356-1.375s0.608-1.375 1.356-1.375zm0 4.668h2.45c0.749 0 1.356 0.616 1.356 1.375s-0.607 1.375-1.356 1.375h-2.45c-0.748 0-1.356-0.616-1.356-1.375s0.608-1.375 1.356-1.375zm5.868-9.335h2.449c0.749 0 1.356 0.616 1.356 1.375 0 0.76-0.607 1.376-1.356 1.376h-2.449c-0.749 0-1.356-0.616-1.356-1.376 0-0.759 0.607-1.375 1.356-1.375zm0 4.667h2.449c0.749 0 1.356 0.616 1.356 1.375s-0.607 1.375-1.356 1.375h-2.449c-0.749 0-1.356-0.616-1.356-1.375s0.607-1.375 1.356-1.375zm0 4.668h2.449c0.749 0 1.356 0.616 1.356 1.375s-0.607 1.375-1.356 1.375h-2.449c-0.749 0-1.356-0.616-1.356-1.375s0.607-1.375 1.356-1.375z"/>
</svg>
