<svg xmlns:rdf="http://www.w3.org/1999/02/22-rdf-syntax-ns#" xmlns="http://www.w3.org/2000/svg" height="82" width="94" version="1.1" xmlns:cc="http://creativecommons.org/ns#" xmlns:dc="http://purl.org/dc/elements/1.1/">
 <path fill-rule="evenodd" d="m13.49 58.68c0 1.192-0.97 2.158-2.165 2.158s-2.163-0.966-2.163-2.158c0-1.191 0.968-2.158 2.163-2.158s2.165 0.967 2.165 2.158zm71.6-3.23c-0.413 0.282-2.293 1.317-7.584 4.223-6.434 3.533-15.24 8.372-20.97 11.65-0.541 0.324-2.78 1.531-6.082 1.531-1.342 0-2.86-0.199-4.51-0.739-4.91-1.339-17.89-6.025-24.73-8.527-0.435 1.245-1.574 2.141-2.921 2.141h-11.27c-0.757 0-1.37-0.606-1.37-1.352s0.613-1.352 1.37-1.352h11.27c0.179 0 0.378-0.218 0.378-0.533v-0.772c0-0.001-0.001-0.003-0.001-0.004v-20.34c0-0.001 0.001-0.002 0.001-0.004v-1.261c0-0.315-0.199-0.534-0.378-0.534h-11.27c-0.757 0-1.37-0.605-1.37-1.351 0-0.747 0.613-1.352 1.37-1.352h11.27c1.65 0 2.99 1.34 3.098 3.025 5.452-0.396 18.02-0.191 26.3 8.643h13.11c0.025-0.002 0.053 0.007 0.073-0.002 2.582 0.006 4.681 2.218 4.681 4.932 0 0.189-0.01 0.374-0.03 0.555l16.3-5.571c2.069-0.812 4.922-0.991 6.118 1.153 1.566 2.82-1.759 5.096-2.851 5.842zm0.449-4.541c-0.326-0.578-1.932-0.245-2.719 0.06l-19.41 6.643c-0.733 0.5-1.608 0.79-2.544 0.79h-20.08c-0.756 0-1.37-0.605-1.37-1.352 0-0.746 0.614-1.352 1.37-1.352h20.08c0.369 0 0.715-0.118 1.01-0.324 0.039-0.033 0.08-0.065 0.125-0.093 0.492-0.405 0.813-1.065 0.813-1.81 0-1.207-0.846-2.194-1.896-2.228-0.018 0.002-0.034 0.002-0.052 0.002h-13.33c-0.669 0-1.319-0.285-1.781-0.782-7.561-8.154-19.38-8.238-24.34-7.859v18.17c5.621 2.06 20.18 7.349 25.33 8.753 4.726 1.544 8.02-0.306 8.38-0.523 5.786-3.314 14.61-8.158 21.05-11.7 3.716-2.04 6.924-3.802 7.268-4.024 0.485-0.331 2.459-1.727 2.098-2.378zm-16.3-15.06c-3.897 0-7.065-3.153-7.065-7.029s3.168-7.029 7.065-7.029c3.896 0 7.065 3.153 7.065 7.029s-3.169 7.029-7.065 7.029zm0-11.35c-2.386 0-4.325 1.94-4.325 4.325s1.939 4.325 4.325 4.325c2.385 0 4.324-1.94 4.324-4.325s-1.939-4.325-4.324-4.325zm-13.25 7.27c3.896 0 7.065 3.154 7.065 7.03s-3.169 7.029-7.065 7.029c-3.895 0-7.063-3.153-7.063-7.029s3.168-7.03 7.063-7.03zm0 11.36c2.385 0 4.325-1.94 4.325-4.325s-1.94-4.326-4.325-4.326c-2.384 0-4.323 1.941-4.323 4.326s1.939 4.325 4.323 4.325zm0.86-19.92c-3.895 0-7.063-3.152-7.063-7.029 0-3.876 3.168-7.028 7.063-7.028 3.896 0 7.065 3.152 7.065 7.028 0 3.877-3.169 7.029-7.065 7.029zm0-11.35c-2.384 0-4.323 1.939-4.323 4.324 0 2.386 1.939 4.325 4.323 4.325 2.385 0 4.325-1.939 4.325-4.325 0-2.385-1.94-4.324-4.325-4.324z"/>
</svg>
