<svg xmlns:rdf="http://www.w3.org/1999/02/22-rdf-syntax-ns#" xmlns="http://www.w3.org/2000/svg" height="82" width="94" version="1.1" xmlns:cc="http://creativecommons.org/ns#" xmlns:dc="http://purl.org/dc/elements/1.1/">
 <path fill-rule="evenodd" d="m73.05 80.13h-52.09c-1.722 0-3.124-1.462-3.124-3.261v-65.02c0-1.797 1.402-3.259 3.124-3.259h10.21v-2.245c0-0.747 0.612-1.353 1.367-1.353h9.056c1.09-1.923 3.13-3.121 5.4-3.121 2.271 0 4.308 1.198 5.415 3.12h9.057c0.754 0 1.367 0.606 1.367 1.353v2.245h10.21c1.723 0 3.124 1.462 3.124 3.259v65.02c0 1.799-1.401 3.261-3.124 3.261zm-12.94-72.43h-8.549c-0.57-0.002-1.08-0.345-1.28-0.867-0.54-1.369-1.82-2.255-3.28-2.255-1.456 0-2.744 0.886-3.281 2.257-0.204 0.52-0.711 0.863-1.275 0.863h-8.548v8.47h26.21v-8.47zm2.715 9.922c-0.054 0.698-0.628 1.254-1.347 1.254h-28.94c-0.719 0-1.293-0.556-1.347-1.254h-5.111v53.48h41.86v-53.48h-5.11zm10.62-5.771c0-0.326-0.205-0.553-0.39-0.553h-10.21v3.617h6.457c0.755 0 1.368 0.607 1.368 1.353v56.18c0 0.746-0.613 1.353-1.368 1.353h-44.59c-0.755 0-1.368-0.607-1.368-1.353v-56.18c0-0.746 0.613-1.353 1.368-1.353h6.458v-3.617h-10.21c-0.184 0-0.39 0.227-0.39 0.553v65.02c0 0.327 0.206 0.555 0.39 0.555h52.09c0.185 0 0.39-0.228 0.39-0.555v-65.02zm-11.74 35.13h-0.002l-29.4-0.05c-0.756-0.002-1.367-0.608-1.366-1.355s0.613-1.351 1.367-1.351h0.002l29.4 0.05c0.754 0.002 1.367 0.608 1.365 1.355s-0.612 1.351-1.367 1.351zm0-7.594h-0.002l-29.4-0.04c-0.755-0.002-1.367-0.608-1.366-1.355s0.613-1.351 1.367-1.351h0.002l29.4 0.04c0.754 0.002 1.367 0.608 1.365 1.355s-0.612 1.351-1.367 1.351zm0-7.593h-0.002l-29.4-0.05c-0.755-0.002-1.367-0.608-1.366-1.355s0.613-1.351 1.367-1.351h0.002l29.4 0.04c0.754 0.002 1.367 0.608 1.365 1.355s-0.612 1.352-1.367 1.352zm-14.7-25.51c2.339 0 4.243 1.902 4.243 4.24 0 2.336-1.904 4.235-4.243 4.235-2.338 0-4.241-1.899-4.241-4.235 0-2.338 1.903-4.24 4.241-4.24zm0 5.769c0.832 0 1.508-0.685 1.508-1.529 0-0.846-0.676-1.533-1.508-1.533-0.83 0-1.506 0.687-1.506 1.533 0 0.844 0.676 1.529 1.506 1.529z"/>
</svg>
