<svg xmlns:rdf="http://www.w3.org/1999/02/22-rdf-syntax-ns#" xmlns="http://www.w3.org/2000/svg" height="82" width="94" version="1.1" xmlns:cc="http://creativecommons.org/ns#" xmlns:dc="http://purl.org/dc/elements/1.1/">
 <path fill-rule="evenodd" d="m84.06 38.19c-1.672 0-3.215-0.536-4.471-1.432l-10.12 9.21c0.757 1.152 1.201 2.517 1.201 3.984 0 4.087-3.409 7.414-7.6 7.414-4.19 0-7.601-3.327-7.601-7.414 0-1.59 0.521-3.061 1.397-4.269l-8.516-8.507v36.67c0 3.466-2.89 6.285-6.442 6.285h-33.13c-3.551 0-6.441-2.819-6.441-6.285v-65.69c0-3.467 2.89-6.286 6.441-6.286h33.13c3.552 0 6.442 2.819 6.442 6.286v16.6c1.92 1.347 3.177 3.539 3.177 6.016 0 1.605-0.531 3.087-1.423 4.302l8.733 8.723c1.211-0.795 2.668-1.26 4.233-1.26 1.691 0 3.249 0.548 4.513 1.462l10.1-9.199c-0.774-1.161-1.229-2.543-1.229-4.028 0-4.087 3.411-7.413 7.602-7.413s7.601 3.326 7.601 7.413-3.41 7.414-7.601 7.414zm-38.46-30.03c0-1.976-1.656-3.582-3.692-3.582h-33.13c-2.035 0-3.691 1.606-3.691 3.582v65.69c0 1.975 1.656 3.58 3.691 3.58h33.13c2.036 0 3.692-1.605 3.692-3.58v-35.84c-0.539 0.118-1.098 0.187-1.674 0.187-0.364 0-0.719-0.034-1.069-0.082v26.89c0 0.747-0.616 1.353-1.375 1.353h-32.27c-0.76 0-1.375-0.606-1.375-1.353v-50.7c0-0.746 0.615-1.352 1.375-1.352h32.27c0.759 0 1.375 0.606 1.375 1.352v9.153c0.35-0.048 0.705-0.082 1.069-0.082 0.576 0 1.135 0.068 1.674 0.187v-15.39zm-24.16 49.21c-4.192 0-7.602-3.327-7.602-7.414 0-4.089 3.41-7.415 7.602-7.415 1.766 0 3.39 0.596 4.682 1.586l11.22-9.659c-0.644-1.088-1.019-2.347-1.019-3.692 0-2.738 1.535-5.13 3.807-6.413 0-0.05-0.02-0.09-0.02-0.13v-8.6h-29.53v48h29.53v-26.47c-0.342-0.195-0.67-0.41-0.975-0.653l-11.18 9.626c0.688 1.115 1.09 2.414 1.09 3.807 0 4.087-3.409 7.414-7.599 7.414zm4.85-7.414c0-2.597-2.176-4.71-4.85-4.71-2.675 0-4.852 2.113-4.852 4.71 0 2.596 2.177 4.709 4.852 4.709 2.674 0 4.85-2.113 4.85-4.709zm17.64-23.89c-2.675 0-4.851 2.113-4.851 4.708 0 2.596 2.176 4.709 4.851 4.709s4.852-2.113 4.852-4.709c0-2.595-2.177-4.708-4.852-4.708zm19.14 19.18c-2.674 0-4.851 2.113-4.851 4.71 0 2.596 2.177 4.709 4.851 4.709 2.675 0 4.85-2.113 4.85-4.709 0-2.597-2.175-4.71-4.85-4.71zm20.99-19.18c-2.675 0-4.852 2.113-4.852 4.708 0 2.596 2.177 4.709 4.852 4.709 2.674 0 4.851-2.113 4.851-4.709 0-2.595-2.177-4.708-4.851-4.708zm-52.85-15.77h-11.72c-0.479 0-0.87-0.381-0.87-0.848v-1.163c0-0.466 0.391-0.847 0.87-0.847h11.72c0.478 0 0.871 0.381 0.871 0.847v1.163c0 0.467-0.393 0.848-0.871 0.848zm-5.859 58.95c1.543 0 2.794 1.217 2.794 2.72 0 1.504-1.251 2.721-2.794 2.721-1.544 0-2.796-1.217-2.796-2.721 0-1.503 1.252-2.72 2.796-2.72z"/>
</svg>
