<svg xmlns:rdf="http://www.w3.org/1999/02/22-rdf-syntax-ns#" xmlns="http://www.w3.org/2000/svg" height="15" width="15" version="1.1" xmlns:cc="http://creativecommons.org/ns#" xmlns:dc="http://purl.org/dc/elements/1.1/">
 <path fill-rule="evenodd" d="m7.5 14.83c-4.056 0-7.355-3.287-7.355-7.328 0-4.04 3.299-7.327 7.355-7.327s7.356 3.287 7.356 7.327c0 4.041-3.3 7.328-7.356 7.328zm0-13.21c-3.257 0-5.908 2.64-5.908 5.885 0 3.246 2.651 5.886 5.908 5.886 3.258 0 5.909-2.64 5.909-5.886 0-3.245-2.651-5.885-5.909-5.885zm-0.751 10.41c-0.285 0-0.818-0.077-0.989-0.232-0.166-0.16-0.249-0.36-0.249-0.602 0-0.16 0.037-0.361 0.111-0.608l0.913-3.089c0.087-0.298 0.131-0.37 0.131-0.52 0-0.095-0.042-0.179-0.125-0.252-0.083-0.074-0.197-0.111-0.341-0.111-0.066 0-0.144-0.002-0.236 0.002l0.089-0.382c0.865-0.115 1.727-0.178 2.591-0.301l-1.322 4.518c-0.075 0.263-0.112 0.436-0.112 0.517 0 0.047 0.02 0.093 0.059 0.136 0.04 0.039 0.081 0.058 0.125 0.058 0.074 0 0.208 0.008 0.453-0.107 0.228-0.136 0.726-0.439 1.001-0.857l0.531 0.306c-0.66 1.133-1.887 1.524-2.63 1.524zm1.918-6.097c-0.008 0-0.015 0.001-0.023 0.002l0.023-0.078v0.076zm-0.407-1.15c-0.262 0-0.488-0.092-0.676-0.277s-0.282-0.41-0.282-0.673 0.092-0.487 0.276-0.672c0.188-0.186 0.415-0.278 0.682-0.278 0.271 0 0.499 0.092 0.682 0.278 0.189 0.185 0.283 0.409 0.283 0.672s-0.094 0.488-0.283 0.673c-0.188 0.185-0.415 0.277-0.682 0.277z"/>
</svg>
