<svg 
 xmlns="http://www.w3.org/2000/svg"
 xmlns:xlink="http://www.w3.org/1999/xlink"
 width="80px" height="61px">
<path fill-rule="evenodd"  fill="rgb(33, 33, 33)"
 d="M79.306,49.813 C79.306,53.661 76.134,56.793 72.235,56.793 L45.608,56.630 C43.958,56.630 42.427,56.115 41.166,55.245 C40.614,57.303 39.247,58.953 37.374,59.696 L35.118,60.592 C34.965,60.653 34.804,60.683 34.644,60.683 C34.402,60.683 34.161,60.615 33.952,60.480 C33.604,60.257 33.386,59.881 33.365,59.469 L32.677,45.701 C31.271,45.367 30.323,44.690 29.898,43.654 L29.708,43.190 C28.764,40.884 30.953,38.822 31.672,38.144 C31.830,38.008 31.903,37.950 31.954,37.896 C32.048,37.799 32.162,37.735 32.276,37.673 L32.097,34.086 L28.806,35.392 C28.111,35.668 27.409,35.868 26.805,36.035 L12.880,39.310 L11.188,45.707 C11.084,46.098 10.801,46.418 10.423,46.567 L7.915,47.563 C7.263,47.823 6.521,47.508 6.255,46.859 L0.087,31.795 C-0.042,31.479 -0.040,31.126 0.095,30.812 C0.228,30.499 0.482,30.251 0.799,30.126 L3.370,29.105 C3.744,28.958 4.166,28.993 4.507,29.199 L10.244,32.658 L22.483,25.550 C22.501,25.539 22.646,25.464 22.666,25.454 C23.255,25.149 23.798,24.870 24.421,24.622 L27.683,23.328 L24.952,20.246 L24.590,20.248 C24.577,20.248 24.563,20.248 24.549,20.248 C21.015,20.248 19.755,18.981 19.319,17.916 L19.129,17.457 C18.723,16.465 18.916,15.331 19.626,14.234 L10.729,4.192 C10.453,3.880 10.346,3.455 10.443,3.050 C10.540,2.646 10.827,2.314 11.215,2.160 L13.472,1.264 C15.789,0.342 18.414,0.901 20.491,2.757 L28.360,8.615 L31.972,7.155 C32.871,6.798 33.856,6.843 34.748,7.281 C35.498,7.527 36.202,8.206 36.580,9.132 L37.858,12.399 C38.227,13.491 38.093,14.587 37.560,15.463 L41.013,18.034 L51.068,14.041 C53.915,12.910 63.016,11.749 64.353,15.010 C64.615,15.651 64.571,16.388 64.223,17.202 C63.082,19.878 58.447,23.623 55.454,24.811 L45.410,28.800 L44.764,32.857 C45.828,33.153 46.689,33.865 47.108,34.891 L48.010,37.278 C48.626,37.082 49.280,36.972 49.958,36.972 C50.999,36.972 52.010,37.221 52.919,37.698 C54.301,34.056 57.936,31.507 62.190,31.271 C65.575,31.093 68.445,32.013 70.504,33.957 C72.446,35.788 73.516,38.384 73.516,41.263 C73.516,41.817 73.464,42.383 73.359,42.954 C76.741,43.491 79.306,46.391 79.306,49.813 ZM32.081,42.226 L32.270,42.689 C32.314,42.796 32.418,42.881 32.540,42.958 L32.448,41.115 C32.124,41.580 31.976,41.971 32.081,42.226 ZM21.500,16.489 L21.689,16.947 C21.760,17.119 22.026,17.294 22.460,17.433 L21.479,16.325 C21.476,16.392 21.483,16.447 21.500,16.489 ZM35.450,13.271 L34.201,10.078 C34.110,9.857 33.962,9.701 33.767,9.635 C33.374,9.454 33.150,9.438 32.928,9.525 L30.760,10.401 L35.468,13.906 C35.519,13.709 35.526,13.494 35.450,13.271 ZM54.507,22.438 C57.641,21.194 61.748,17.229 61.951,15.985 C60.936,15.220 55.172,15.160 52.015,16.414 L41.295,20.671 C40.884,20.834 40.411,20.774 40.055,20.508 L18.870,4.732 C17.445,3.464 15.814,3.082 14.420,3.637 L13.854,3.861 L30.808,22.997 C31.084,23.309 31.191,23.734 31.094,24.138 C30.998,24.543 30.710,24.875 30.322,25.029 L25.370,26.995 C24.828,27.211 24.358,27.456 23.845,27.721 L10.876,35.246 C10.472,35.481 9.969,35.478 9.569,35.236 L3.726,31.713 L2.947,32.022 L8.147,44.722 L8.875,44.432 L10.599,37.917 C10.720,37.462 11.082,37.108 11.543,37.000 L26.170,33.560 C26.672,33.421 27.277,33.250 27.859,33.018 L32.812,31.052 C33.197,30.899 33.631,30.939 33.979,31.164 C34.326,31.386 34.545,31.763 34.566,32.175 L35.834,57.558 L36.427,57.323 C37.809,56.774 38.720,55.411 38.862,53.674 C38.880,53.460 38.964,53.274 39.073,53.105 C38.285,51.903 37.821,50.474 37.821,48.939 C37.821,46.583 38.914,44.459 40.650,43.041 C40.612,42.883 40.602,42.716 40.629,42.545 L42.994,27.682 C43.065,27.237 43.365,26.862 43.786,26.696 L54.507,22.438 ZM44.723,35.822 C44.641,35.622 44.502,35.499 44.358,35.414 L43.371,41.615 C43.544,41.564 43.707,41.494 43.886,41.454 C44.230,40.303 44.897,39.323 45.758,38.565 L44.723,35.822 ZM72.546,45.429 L71.692,45.370 C71.315,45.344 70.969,45.154 70.746,44.850 C70.522,44.545 70.446,44.159 70.536,43.793 L70.737,42.974 C70.881,42.389 70.954,41.814 70.954,41.263 C70.954,39.093 70.170,37.156 68.744,35.812 C67.209,34.363 64.986,33.677 62.331,33.822 C58.902,34.011 56.016,36.128 55.151,39.088 L54.874,40.037 C54.760,40.430 54.465,40.744 54.080,40.883 C53.694,41.022 53.267,40.970 52.927,40.739 L52.098,40.180 C51.465,39.752 50.726,39.526 49.958,39.526 C48.196,39.526 46.685,40.706 46.284,42.395 L46.175,42.852 C46.058,43.348 45.656,43.726 45.153,43.815 L44.684,43.898 C42.191,44.338 40.383,46.458 40.383,48.939 C40.383,51.772 42.730,54.075 45.616,54.075 L72.243,54.238 C74.722,54.238 76.745,52.254 76.745,49.813 C76.745,47.516 74.900,45.591 72.546,45.429 Z"/>
</svg>